<?xml version="1.0" encoding="UTF-8" standalone="no"?>
<svg
   xmlns:dc="http://purl.org/dc/elements/1.1/"
   xmlns:cc="http://creativecommons.org/ns#"
   xmlns:rdf="http://www.w3.org/1999/02/22-rdf-syntax-ns#"
   xmlns:svg="http://www.w3.org/2000/svg"
   xmlns="http://www.w3.org/2000/svg"
   viewBox="0 0 443.25333 545.64001"
   height="545.64001"
   width="443.25333"
   xml:space="preserve"
   id="svg2"
   version="1.1"><metadata
     id="metadata8"><rdf:RDF><cc:Work
         rdf:about=""><dc:format>image/svg+xml</dc:format><dc:type
           rdf:resource="http://purl.org/dc/dcmitype/StillImage" /></cc:Work></rdf:RDF></metadata><defs
     id="defs6"><clipPath
       id="clipPath26"
       clipPathUnits="userSpaceOnUse"><path
         id="path24"
         d="M 0,0 H 3324 V 4092 H 0 Z" /></clipPath><clipPath
       id="clipPath32"
       clipPathUnits="userSpaceOnUse"><path
         id="path30"
         d="m 2620.92,2977.89 c 0,0 -15.68,-137.05 121.01,-130.14 l 574.21,29.02 c -2.15,39.78 -12.71,84.55 -37.61,133.03 l -501.37,976 c -37.89,73.74 -70.13,102.38 -96.76,106.5 z" /></clipPath><linearGradient
       id="linearGradient38"
       spreadMethod="pad"
       gradientTransform="matrix(694.942,6.06467,6.06467,-694.942,2615.98,3469.11)"
       gradientUnits="userSpaceOnUse"
       y2="0"
       x2="1"
       y1="0"
       x1="0"><stop
         id="stop34"
         offset="0"
         style="stop-opacity:1;stop-color:#d71e26" /><stop
         id="stop36"
         offset="1"
         style="stop-opacity:1;stop-color:#bc1e26" /></linearGradient><clipPath
       id="clipPath48"
       clipPathUnits="userSpaceOnUse"><path
         id="path46"
         d="m 2435.67,1329.89 48.82,914.86 c 0,0 15.68,137.05 -121.01,130.14 -7.06,0.74 -15.53,1.72 -25.14,2.9 l -472.59,-23.88 c -128.56,-6.5 -63.91,105.05 -51.73,124.45 3.59,7.98 7.22,15.27 10.71,21.53 1.72,3.09 4,7.1 6.47,11.43 l 527.18,1035.67 10.69,-5.77 174.99,349.5 c 0,0 46.17,99.2 53.16,117.43 13.92,36.38 41.73,89.67 83.21,83.26 L 2620.96,2977 c 0,0 -15.68,-137.05 121.01,-130.14 l 574.21,29.02 c 0.75,-13.91 -17.47,-120.93 -24.89,-132.71 -3.54,-7.85 -7.13,-15.14 -10.57,-21.31 -1.72,-3.1 -4,-7.11 -6.48,-11.45 L 2747.07,1674.76 c 0,0 -229.43,-444.06 -238.84,-461.17 -38.22,-69.49 -57.4,-46.41 -71.94,-28.83 -12.91,15.61 -9.38,49.94 -9.38,49.94 z" /></clipPath><linearGradient
       id="linearGradient54"
       spreadMethod="pad"
       gradientTransform="matrix(-494.068,2802,2802,494.068,2800.34,1225.82)"
       gradientUnits="userSpaceOnUse"
       y2="0"
       x2="1"
       y1="0"
       x1="0"><stop
         id="stop50"
         offset="0"
         style="stop-opacity:1;stop-color:#9ab1cd" /><stop
         id="stop52"
         offset="1"
         style="stop-opacity:1;stop-color:#d0e4f6" /></linearGradient><clipPath
       id="clipPath64"
       clipPathUnits="userSpaceOnUse"><path
         id="path62"
         d="m 2484.49,2244.75 c 0,0 15.68,137.05 -121.01,130.14 -7.06,0.74 -15.53,1.72 -25.14,2.9 l -472.59,-23.88 c -53.23,-2.69 -73.08,14.94 -77.5,37.81 -0.05,0.21 -0.1,0.42 -0.15,0.63 -0.55,3.06 -0.83,6.2 -0.87,9.41 -0.03,1.07 -0.11,2.12 -0.08,3.2 0.06,1.89 0.27,3.79 0.48,5.7 3.31,34.35 28.36,71.74 28.36,71.74 l 1.79,3.51 c 2.33,4.84 4.68,9.91 6.95,13.98 0.43,0.77 1.12,1.98 1.62,2.86 l 531.99,1045.13 -776.35,418.54 c -170.21,91.77 -349.16,-21.73 -349.16,-21.73 L 114.535,3174.51 C -47.1523,3063.15 9.6875,2969.99 9.6875,2969.99 L 423.07,1920.5 c 0,0 45.09,-131.78 149.379,-60.94 L 1173.2,2267.61 2464.87,1877.1 Z" /></clipPath><linearGradient
       id="linearGradient70"
       spreadMethod="pad"
       gradientTransform="matrix(2485.04,0,0,-2485.04,0,2920.44)"
       gradientUnits="userSpaceOnUse"
       y2="0"
       x2="1"
       y1="0"
       x1="0"><stop
         id="stop66"
         offset="0"
         style="stop-opacity:1;stop-color:#ec1d27" /><stop
         id="stop68"
         offset="1"
         style="stop-opacity:1;stop-color:#bc1e26" /></linearGradient></defs><g
     transform="matrix(1.3333333,0,0,-1.3333333,0,545.64)"
     id="g10"><g
       transform="scale(0.1)"
       id="g12"><path
         id="path14"
         style="fill:#18192e;fill-opacity:1;fill-rule:nonzero;stroke:none"
         d="M 20.0039,780.461 V 210.781 C 20.0039,84.0195 109.73,0 243.598,0 h 323.511 l 150.75,207.941 H 348.996 c -39.887,0 -61.246,21.348 -61.246,61.219 V 418.719 H 665.164 V 602.441 H 287.75 v 119.618 c 0,39.882 21.359,61.25 61.246,61.25 H 717.859 V 990.34 l -474.261,0.91 C 111.152,991.25 20.0039,907.219 20.0039,780.461" /><path
         id="path16"
         style="fill:#18192e;fill-opacity:1;fill-rule:nonzero;stroke:none"
         d="M 851.957,780.461 V 210.781 C 851.957,84.0195 941.684,0 1075.55,0 h 323.51 l 150.75,207.941 h -368.86 c -39.88,0 -61.25,21.348 -61.25,61.219 v 149.559 h 377.42 V 602.441 H 1119.7 v 119.618 c 0,39.882 21.37,61.25 61.25,61.25 h 368.86 V 990.34 l -474.26,0.91 c -132.445,0 -223.593,-84.031 -223.593,-210.789" /><path
         id="path18"
         style="fill:#18192e;fill-opacity:1;fill-rule:nonzero;stroke:none"
         d="m 2739.01,435.82 64.09,252.078 c 6.54,30.114 12.97,63.59 18.41,94.301 h 40.98 c 3.42,-30.679 10.97,-64.23 17.5,-94.301 l 64.09,-252.078 z m 317.59,485.649 c -11.4,42.722 -48.43,69.781 -91.15,69.781 h -94.9 -152.91 -402.08 -340.12 c -277.72,0 -383.11,-54 -383.11,-272.738 0,-141.211 56.97,-222.903 212.2,-283.801 l 196.54,-76.152 c 58.4,-20.77 78.34,-34.61 78.34,-80.289 0,-19.059 -3.75,-32.34 -14.02,-41.43 -5.57,-4.942 -25.57,-14.86 -44.16,-18.988 -29.79,-6.602 -100.6,-14.84 -267.38,-12.961 L 1602.65,0 h 359.97 c 289.11,0 384.53,67.832 384.53,283.801 0,139.828 -54.12,224.269 -215.05,286.57 l -180.88,67.84 c -69.78,23.539 -93.99,40.148 -93.99,84.449 0,52.621 28.48,59.539 115.36,59.539 h 614.26 L 2358.75,8.55078 h 273.45 l 58.38,233.57022 h 301.93 l 58.4,-233.57022 h 273.45 L 3056.6,921.469" /><g
         id="g20"><g
           clip-path="url(#clipPath26)"
           id="g22"><g
             clip-path="url(#clipPath32)"
             id="g28"><path
               id="path40"
               style="fill:url(#linearGradient38);fill-opacity:1;fill-rule:nonzero;stroke:none"
               d="m 2720,2847 v 1 h -8 v 1 h -7 v 1 h -6 v 1 h -4 v 1 h -3 v 1 h -3 v 1 h -3 v 1 h -3 v 1 h -3 v 1 h -2 v 1 h -2 v 1 h -2 v 1 h -1 v 1 h -2 v 1 h -2 v 1 h -2 v 1 h -2 v 1 h -1 v 1 h -1 v 1 h -2 v 1 h -1 v 1 h -1 v 1 h -1 v 1 h -2 v 1 h -1 v 1 h -1 v 1 h -1 v 1 h -1 v 1 h -1 v 1 h -1 v 1 h -1 v 1 h -1 v 1 h -1 v 2 h -1 v 1 h -1 v 1 h -1 v 1 h -1 v 1 h -1 v 2 h -1 v 1 h -1 v 2 h -1 v 2 h -1 v 1 h -1 v 2 h -1 v 1 h -1 v 2 h -1 v 3 h -1 v 2 h -1 v 2 h -1 v 2 h -1 v 2 h -1 v 3 h -1 v 3 h -1 v 3 h -1 v 3 h -1 v 5 h -1 v 4 h -1 v 5 h -1 v 6 h -1 v 9 h -1 v 29 h 1 v 19 h 1 v 18 h 1 v 19 h 1 v 19 h 1 v 18 h 1 v 19 h 1 v 19 h 1 v 19 h 1 v 18 h 1 v 19 h 1 v 19 h 1 v 19 h 1 v 18 h 1 v 19 h 1 v 19 h 1 v 19 h 1 v 18 h 1 v 19 h 1 v 19 h 1 v 19 h 1 v 18 h 1 v 19 h 1 v 19 h 1 v 18 h 1 v 19 h 1 v 19 h 1 v 19 h 1 v 18 h 1 v 19 h 1 v 19 h 1 v 19 h 1 v 18 h 1 v 19 h 1 v 19 h 1 v 19 h 1 v 18 h 1 v 19 h 1 v 19 h 1 v 19 h 1 v 18 h 1 v 19 h 1 v 19 h 1 v 18 h 1 v 19 h 1 v 19 h 1 v 19 h 1 v 18 h 1 v 19 h 1 v 19 h 1 v 19 h 1 v 18 h 1 v 19 h 1 v 19 h 1 v 19 h 1 v 18 h 1 v 19 h 1 v 19 h 1 v 19 h 1 v 18 h 1 v 7 h 6 v -1 h 4 v -1 h 2 v -1 h 2 v -1 h 2 v -1 h 2 v -1 h 2 v -1 h 2 v -1 h 2 v -1 h 1 v -1 h 2 v -1 h 1 v -1 h 1 v -1 h 2 v -1 h 1 v -1 h 1 v -1 h 2 v -1 h 1 v -1 h 1 v -1 h 1 v -1 h 1 v -1 h 1 v -1 h 1 v -1 h 1 v -1 h 1 v -1 h 1 v -1 h 1 v -1 h 1 v -1 h 1 v -1 h 1 v -1 h 1 v -2 h 1 v -1 h 1 v -1 h 1 v -1 h 1 v -1 h 1 v -1 h 1 v -1 h 1 v -2 h 1 v -1 h 1 v -1 h 1 v -2 h 1 v -1 h 1 v -1 h 1 v -2 h 1 v -1 h 1 v -1 h 1 v -2 h 1 v -1 h 1 v -2 h 1 v -1 h 1 v -1 h 1 v -2 h 1 v -1 h 1 v -2 h 1 v -2 h 1 v -1 h 1 v -2 h 1 v -2 h 1 v -1 h 1 v -2 h 1 v -1 h 1 v -2 h 1 v -2 h 1 v -1 h 1 v -2 h 1 v -2 h 1 v -1 h 1 v -2 h 1 v -2 h 1 v -2 h 1 v -2 h 1 v -1 h 1 v -2 h 1 v -2 h 1 v -2 h 1 v -2 h 1 v -1 h 1 v -2 h 1 v -2 h 1 v -2 h 1 v -2 h 1 v -2 h 1 v -2 h 1 v -2 h 1 v -2 h 1 v -2 h 1 v -2 h 1 v -2 h 1 v -2 h 1 v -2 h 1 v -2 h 1 v -2 h 1 v -2 h 1 v -2 h 1 v -2 h 1 v -1 h 1 v -2 h 1 v -2 h 1 v -2 h 1 v -2 h 1 v -2 h 1 v -2 h 1 v -2 h 1 v -2 h 1 v -2 h 1 v -2 h 1 v -2 h 1 v -2 h 1 v -2 h 1 v -2 h 1 v -2 h 1 v -2 h 1 v -2 h 1 v -2 h 1 v -1 h 1 v -2 h 1 v -2 h 1 v -2 h 1 v -2 h 1 v -2 h 1 v -2 h 1 v -2 h 1 v -2 h 1 v -2 h 1 v -2 h 1 v -2 h 1 v -2 h 1 v -2 h 1 v -2 h 1 v -2 h 1 v -2 h 1 v -2 h 1 v -2 h 1 v -1 h 1 v -2 h 1 v -2 h 1 v -2 h 1 v -2 h 1 v -2 h 1 v -2 h 1 v -2 h 1 v -2 h 1 v -2 h 1 v -2 h 1 v -2 h 1 v -2 h 1 v -2 h 1 v -2 h 1 v -2 h 1 v -2 h 1 v -2 h 1 v -1 h 1 v -2 h 1 v -2 h 1 v -2 h 1 v -2 h 1 v -2 h 1 v -2 h 1 v -2 h 1 v -2 h 1 v -2 h 1 v -2 h 1 v -2 h 1 v -2 h 1 v -2 h 1 v -2 h 1 v -2 h 1 v -2 h 1 v -2 h 1 v -2 h 1 v -1 h 1 v -2 h 1 v -2 h 1 v -2 h 1 v -2 h 1 v -2 h 1 v -2 h 1 v -2 h 1 v -2 h 1 v -2 h 1 v -2 h 1 v -2 h 1 v -2 h 1 v -2 h 1 v -2 h 1 v -2 h 1 v -2 h 1 v -2 h 1 v -2 h 1 v -1 h 1 v -2 h 1 v -2 h 1 v -2 h 1 v -2 h 1 v -2 h 1 v -2 h 1 v -2 h 1 v -2 h 1 v -2 h 1 v -2 h 1 v -2 h 1 v -2 h 1 v -2 h 1 v -2 h 1 v -2 h 1 v -2 h 1 v -2 h 1 v -2 h 1 v -1 h 1 v -2 h 1 v -2 h 1 v -2 h 1 v -2 h 1 v -2 h 1 v -2 h 1 v -2 h 1 v -2 h 1 v -2 h 1 v -2 h 1 v -2 h 1 v -2 h 1 v -2 h 1 v -2 h 1 v -2 h 1 v -2 h 1 v -2 h 1 v -1 h 1 v -2 h 1 v -2 h 1 v -2 h 1 v -2 h 1 v -2 h 1 v -2 h 1 v -2 h 1 v -2 h 1 v -2 h 1 v -2 h 1 v -2 h 1 v -2 h 1 v -2 h 1 v -2 h 1 v -2 h 1 v -2 h 1 v -2 h 1 v -2 h 1 v -1 h 1 v -2 h 1 v -2 h 1 v -2 h 1 v -2 h 1 v -2 h 1 v -2 h 1 v -2 h 1 v -2 h 1 v -2 h 1 v -2 h 1 v -2 h 1 v -2 h 1 v -2 h 1 v -2 h 1 v -2 h 1 v -2 h 1 v -2 h 1 v -2 h 1 v -1 h 1 v -2 h 1 v -2 h 1 v -2 h 1 v -2 h 1 v -2 h 1 v -2 h 1 v -2 h 1 v -2 h 1 v -2 h 1 v -2 h 1 v -2 h 1 v -2 h 1 v -2 h 1 v -2 h 1 v -2 h 1 v -2 h 1 v -2 h 1 v -2 h 1 v -1 h 1 v -2 h 1 v -2 h 1 v -2 h 1 v -2 h 1 v -2 h 1 v -2 h 1 v -2 h 1 v -2 h 1 v -2 h 1 v -2 h 1 v -2 h 1 v -2 h 1 v -2 h 1 v -2 h 1 v -2 h 1 v -2 h 1 v -2 h 1 v -1 h 1 v -2 h 1 v -2 h 1 v -2 h 1 v -2 h 1 v -2 h 1 v -2 h 1 v -2 h 1 v -2 h 1 v -2 h 1 v -2 h 1 v -2 h 1 v -2 h 1 v -2 h 1 v -2 h 1 v -2 h 1 v -2 h 1 v -2 h 1 v -2 h 1 v -1 h 1 v -2 h 1 v -2 h 1 v -2 h 1 v -2 h 1 v -2 h 1 v -2 h 1 v -2 h 1 v -2 h 1 v -2 h 1 v -2 h 1 v -2 h 1 v -2 h 1 v -2 h 1 v -2 h 1 v -2 h 1 v -2 h 1 v -2 h 1 v -2 h 1 v -1 h 1 v -2 h 1 v -2 h 1 v -2 h 1 v -2 h 1 v -2 h 1 v -2 h 1 v -2 h 1 v -2 h 1 v -2 h 1 v -2 h 1 v -2 h 1 v -2 h 1 v -2 h 1 v -2 h 1 v -2 h 1 v -2 h 1 v -2 h 1 v -2 h 1 v -1 h 1 v -2 h 1 v -2 h 1 v -2 h 1 v -2 h 1 v -2 h 1 v -2 h 1 v -2 h 1 v -2 h 1 v -2 h 1 v -2 h 1 v -2 h 1 v -2 h 1 v -2 h 1 v -2 h 1 v -2 h 1 v -2 h 1 v -2 h 1 v -1 h 1 v -2 h 1 v -2 h 1 v -2 h 1 v -2 h 1 v -2 h 1 v -2 h 1 v -2 h 1 v -2 h 1 v -2 h 1 v -2 h 1 v -2 h 1 v -2 h 1 v -2 h 1 v -2 h 1 v -2 h 1 v -2 h 1 v -2 h 1 v -2 h 1 v -1 h 1 v -2 h 1 v -2 h 1 v -2 h 1 v -2 h 1 v -2 h 1 v -2 h 1 v -2 h 1 v -2 h 1 v -2 h 1 v -2 h 1 v -2 h 1 v -2 h 1 v -2 h 1 v -2 h 1 v -2 h 1 v -2 h 1 v -2 h 1 v -2 h 1 v -1 h 1 v -2 h 1 v -2 h 1 v -2 h 1 v -2 h 1 v -2 h 1 v -2 h 1 v -2 h 1 v -2 h 1 v -2 h 1 v -2 h 1 v -2 h 1 v -2 h 1 v -2 h 1 v -2 h 1 v -2 h 1 v -2 h 1 v -2 h 1 v -2 h 1 v -1 h 1 v -2 h 1 v -2 h 1 v -2 h 1 v -2 h 1 v -2 h 1 v -2 h 1 v -2 h 1 v -2 h 1 v -2 h 1 v -2 h 1 v -2 h 1 v -2 h 1 v -2 h 1 v -2 h 1 v -2 h 1 v -2 h 1 v -2 h 1 v -1 h 1 v -2 h 1 v -2 h 1 v -2 h 1 v -2 h 1 v -2 h 1 v -2 h 1 v -2 h 1 v -2 h 1 v -2 h 1 v -2 h 1 v -2 h 1 v -2 h 1 v -2 h 1 v -2 h 1 v -2 h 1 v -2 h 1 v -2 h 1 v -2 h 1 v -1 h 1 v -2 h 1 v -2 h 1 v -2 h 1 v -2 h 1 v -2 h 1 v -2 h 1 v -2 h 1 v -2 h 1 v -2 h 1 v -2 h 1 v -2 h 1 v -2 h 1 v -2 h 1 v -2 h 1 v -2 h 1 v -2 h 1 v -2 h 1 v -2 h 1 v -1 h 1 v -2 h 1 v -2 h 1 v -2 h 1 v -2 h 1 v -2 h 1 v -2 h 1 v -2 h 1 v -2 h 1 v -2 h 1 v -2 h 1 v -2 h 1 v -2 h 1 v -2 h 1 v -2 h 1 v -2 h 1 v -2 h 1 v -2 h 1 v -2 h 1 v -1 h 1 v -2 h 1 v -2 h 1 v -2 h 1 v -2 h 1 v -2 h 1 v -2 h 1 v -2 h 1 v -2 h 1 v -2 h 1 v -2 h 1 v -2 h 1 v -2 h 1 v -2 h 1 v -2 h 1 v -2 h 1 v -2 h 1 v -2 h 1 v -1 h 1 v -2 h 1 v -2 h 1 v -2 h 1 v -2 h 1 v -2 h 1 v -2 h 1 v -2 h 1 v -2 h 1 v -2 h 1 v -2 h 1 v -2 h 1 v -2 h 1 v -2 h 1 v -2 h 1 v -2 h 1 v -2 h 1 v -2 h 1 v -2 h 1 v -1 h 1 v -2 h 1 v -2 h 1 v -2 h 1 v -2 h 1 v -2 h 1 v -2 h 1 v -2 h 1 v -2 h 1 v -2 h 1 v -2 h 1 v -2 h 1 v -2 h 1 v -2 h 1 v -2 h 1 v -2 h 1 v -2 h 1 v -2 h 1 v -2 h 1 v -1 h 1 v -2 h 1 v -2 h 1 v -2 h 1 v -2 h 1 v -2 h 1 v -2 h 1 v -2 h 1 v -2 h 1 v -2 h 1 v -2 h 1 v -2 h 1 v -2 h 1 v -2 h 1 v -2 h 1 v -2 h 1 v -2 h 1 v -2 h 1 v -2 h 1 v -1 h 1 v -2 h 1 v -3 h 1 v -2 h 1 v -2 h 1 v -3 h 1 v -2 h 1 v -2 h 1 v -3 h 1 v -2 h 1 v -2 h 1 v -3 h 1 v -2 h 1 v -3 h 1 v -3 h 1 v -3 h 1 v -3 h 1 v -3 h 1 v -3 h 1 v -3 h 1 v -3 h 1 v -3 h 1 v -3 h 1 v -3 h 1 v -3 h 1 v -5 h 1 v -4 h 1 v -5 h 1 v -5 h 1 v -4 h 1 v -5 h 1 v -5 h 1 v -8 h 1 v -8 h 1 v -11 h 1 v -4 h -16 v -1 h -19 v -1 h -20 v -1 h -20 v -1 h -20 v -1 h -20 v -1 h -19 v -1 h -20 v -1 h -20 v -1 h -20 v -1 h -20 v -1 h -19 v -1 h -20 v -1 h -20 v -1 h -20 v -1 h -19 v -1 h -20 v -1 h -20 v -1 h -20 v -1 h -20 v -1 h -19 v -1 h -20 v -1 h -20 v -1 h -20 v -1 h -20 v -1 h -19 v -1 h -20 v -1 h -20 v -1 h -20 v -1" /></g></g></g><g
         id="g42"><g
           clip-path="url(#clipPath48)"
           id="g44"><path
             id="path56"
             style="fill:url(#linearGradient54);fill-opacity:1;fill-rule:nonzero;stroke:none"
             d="m 2435.67,1329.89 48.82,914.86 c 0,0 15.68,137.05 -121.01,130.14 -7.06,0.74 -15.53,1.72 -25.14,2.9 l -472.59,-23.88 c -128.56,-6.5 -63.91,105.05 -51.73,124.45 3.59,7.98 7.22,15.27 10.71,21.53 1.72,3.09 4,7.1 6.47,11.43 l 527.18,1035.67 10.69,-5.77 174.99,349.5 c 0,0 46.17,99.2 53.16,117.43 13.92,36.38 41.73,89.67 83.21,83.26 L 2620.96,2977 c 0,0 -15.68,-137.05 121.01,-130.14 l 574.21,29.02 c 0.75,-13.91 -17.47,-120.93 -24.89,-132.71 -3.54,-7.85 -7.13,-15.14 -10.57,-21.31 -1.72,-3.1 -4,-7.11 -6.48,-11.45 L 2747.07,1674.76 c 0,0 -229.43,-444.06 -238.84,-461.17 -38.22,-69.49 -57.4,-46.41 -71.94,-28.83 -12.91,15.61 -9.38,49.94 -9.38,49.94 l 8.76,95.19" /></g></g><g
         id="g58"><g
           clip-path="url(#clipPath64)"
           id="g60"><path
             id="path72"
             style="fill:url(#linearGradient70);fill-opacity:1;fill-rule:nonzero;stroke:none"
             d="m 2484.49,2244.75 c 0,0 15.68,137.05 -121.01,130.14 -7.06,0.74 -15.53,1.72 -25.14,2.9 l -472.59,-23.88 c -53.23,-2.69 -73.08,14.94 -77.5,37.81 -0.05,0.21 -0.1,0.42 -0.15,0.63 -0.55,3.06 -0.83,6.2 -0.87,9.41 -0.03,1.07 -0.11,2.12 -0.08,3.2 0.06,1.89 0.27,3.79 0.48,5.7 3.31,34.35 28.36,71.74 28.36,71.74 l 1.79,3.51 c 2.33,4.84 4.68,9.91 6.95,13.98 0.43,0.77 1.12,1.98 1.62,2.86 l 531.99,1045.13 -776.35,418.54 c -170.21,91.77 -349.16,-21.73 -349.16,-21.73 L 114.535,3174.51 C -47.1523,3063.15 9.6875,2969.99 9.6875,2969.99 L 423.07,1920.5 c 0,0 45.09,-131.78 149.379,-60.94 l 600.751,408.05 1291.67,-390.51 19.62,367.65" /></g></g></g></g></svg>