<?xml version="1.0" encoding="UTF-8" standalone="no"?>
<svg
   xmlns:dc="http://purl.org/dc/elements/1.1/"
   xmlns:cc="http://creativecommons.org/ns#"
   xmlns:rdf="http://www.w3.org/1999/02/22-rdf-syntax-ns#"
   xmlns:svg="http://www.w3.org/2000/svg"
   xmlns="http://www.w3.org/2000/svg"
   viewBox="0 0 685.69336 224.48"
   height="224.48"
   width="685.69336"
   xml:space="preserve"
   id="svg2"
   version="1.1"><metadata
     id="metadata8"><rdf:RDF><cc:Work
         rdf:about=""><dc:format>image/svg+xml</dc:format><dc:type
           rdf:resource="http://purl.org/dc/dcmitype/StillImage" /></cc:Work></rdf:RDF></metadata><defs
     id="defs6"><clipPath
       id="clipPath90"
       clipPathUnits="userSpaceOnUse"><path
         id="path88"
         d="m 4743.79,1041.82 c 0,0 -12.13,-78.742 66.91,-77.828 l 332.04,3.824 c -0.35,23.008 -5.44,49.084 -18.72,77.614 l -267.38,574.55 c -20.21,43.41 -38.17,60.66 -53.45,63.64 z" /></clipPath><linearGradient
       id="linearGradient96"
       spreadMethod="pad"
       gradientTransform="matrix(399.035,3.48233,3.48233,-399.035,4740.57,1323.23)"
       gradientUnits="userSpaceOnUse"
       y2="0"
       x2="1"
       y1="0"
       x1="0"><stop
         id="stop92"
         offset="0"
         style="stop-opacity:1;stop-color:#ec1d27" /><stop
         id="stop94"
         offset="1"
         style="stop-opacity:1;stop-color:#bc1e26" /></linearGradient><clipPath
       id="clipPath106"
       clipPathUnits="userSpaceOnUse"><path
         id="path104"
         d="m 4599.8,94.9102 48.76,526.8708 c 0,0 12.14,78.742 -66.91,77.828 -4.06,0.586 -8.92,1.344 -14.44,2.243 l -273.28,-3.149 c -74.33,-0.855 -34.51,62.063 -27.05,72.985 2.25,4.523 4.51,8.652 6.67,12.183 1.06,1.746 2.46,4.012 3.99,6.453 l 327.54,585.836 6.04,-3.57 108.85,197.76 c 0,0 28.89,56.21 33.32,66.58 8.86,20.68 26.11,50.81 49.9,46.18 L 4743.8,1041.3 c 0,0 -12.14,-78.737 66.9,-77.823 l 332.04,3.824 c 0.12,-8.039 -12.8,-69.399 -17.35,-76.028 -2.22,-4.453 -4.45,-8.574 -6.58,-12.062 -1.06,-1.746 -2.47,-4.012 -4,-6.457 L 4787.27,286.93 c 0,0 -142.39,-251.1097 -148.21,-260.7698 -23.62,-39.25 -34.17,-25.500044 -42.17,-15.0313 -7.1,9.3008 -4.29,29.043 -4.29,29.043 z" /></clipPath><linearGradient
       id="linearGradient112"
       spreadMethod="pad"
       gradientTransform="matrix(-282.381,1601.46,1601.46,282.381,4838.26,39.7501)"
       gradientUnits="userSpaceOnUse"
       y2="0"
       x2="1"
       y1="0"
       x1="0"><stop
         id="stop108"
         offset="0"
         style="stop-opacity:1;stop-color:#9ab1cd" /><stop
         id="stop110"
         offset="1"
         style="stop-opacity:1;stop-color:#d0e4f6" /></linearGradient><clipPath
       id="clipPath122"
       clipPathUnits="userSpaceOnUse"><path
         id="path120"
         d="m 4648.56,621.781 c 0,0 12.14,78.742 -66.91,77.828 -4.06,0.586 -8.92,1.344 -14.44,2.243 l -273.28,-3.149 c -30.78,-0.355 -41.84,10.27 -43.87,23.563 -0.02,0.125 -0.05,0.246 -0.07,0.371 -0.25,1.781 -0.34,3.593 -0.29,5.449 0,0.617 -0.02,1.223 0.02,1.848 0.08,1.089 0.24,2.179 0.41,3.281 2.68,19.75 17.98,40.762 17.98,40.762 l 1.11,1.984 c 1.45,2.742 2.93,5.617 4.33,7.91 0.26,0.438 0.69,1.121 0.99,1.617 l 330.54,591.192 -438.62,259.01 c -96.17,56.79 -202,-4.68 -202,-4.68 l -662.71,-419.33 c -95.82,-60.62 -65.11,-115.66 -65.11,-115.66 L 3451.6,481.039 c 0,0 23.05,-77.059 84.83,-38.527 l 355.89,221.968 736.64,-254.429 z" /></clipPath><linearGradient
       id="linearGradient128"
       spreadMethod="pad"
       gradientTransform="matrix(1417.27,0,0,-1417.27,3231.96,1034.91)"
       gradientUnits="userSpaceOnUse"
       y2="0"
       x2="1"
       y1="0"
       x1="0"><stop
         id="stop124"
         offset="0"
         style="stop-opacity:1;stop-color:#ec1d27" /><stop
         id="stop126"
         offset="1"
         style="stop-opacity:1;stop-color:#bc1e26" /></linearGradient></defs><g
     transform="matrix(1.3333333,0,0,-1.3333333,0,224.48)"
     id="g10"><g
       transform="scale(0.1)"
       id="g12"><path
         id="path14"
         style="fill:#51769b;fill-opacity:1;fill-rule:nonzero;stroke:none"
         d="M 13.0273,121.52 V 330.941 H 120.164 V 297.75 H 62.6445 V 244.488 H 112.859 V 212.23 H 62.6445 V 154.691 H 120.164 V 121.52 H 13.0273" /><path
         id="path16"
         style="fill:#51769b;fill-opacity:1;fill-rule:nonzero;stroke:none"
         d="m 142.715,121.52 v 238.929 h 47.488 V 121.52 h -47.488" /><path
         id="path18"
         style="fill:#51769b;fill-opacity:1;fill-rule:nonzero;stroke:none"
         d="m 284.273,260.621 c -19.48,0 -31.668,-16.742 -30.136,-50.519 l 57.222,8.527 c 0,29.211 -9.746,41.992 -27.086,41.992 z m -27.101,-73.672 c 3.351,-24.027 15.523,-35.91 39.574,-35.91 19.184,0 33.781,4.262 42.621,8.832 l 10.641,-29.531 c -12.781,-6.379 -31.043,-11.871 -58.738,-11.871 -50.231,0 -79.145,33.179 -79.145,85.543 0,51.429 26.789,84.617 73.965,84.617 47.488,0 71.539,-32.258 69.41,-87.668 l -98.328,-14.012" /><path
         id="path20"
         style="fill:#51769b;fill-opacity:1;fill-rule:nonzero;stroke:none"
         d="m 438.309,118.469 c -38.965,0 -67.582,30.453 -67.582,85.543 0,55.386 30.746,84.617 67.265,84.617 20.094,0 32.875,-5.789 40.184,-11.879 l -9.735,-26.172 c -4.269,3.352 -10.043,6.402 -19.48,6.402 -20.699,0 -30.449,-18.871 -30.449,-52.359 0,-33.191 11.265,-52.359 30.136,-52.359 8.829,0 14.915,2.429 19.793,6.699 l 10.047,-28.621 c -7.008,-6.692 -19.48,-11.871 -40.179,-11.871" /><path
         id="path22"
         style="fill:#51769b;fill-opacity:1;fill-rule:nonzero;stroke:none"
         d="m 554.301,119.082 c -34.41,0 -49.321,22.219 -49.321,47.488 v 88.258 h -17.964 v 30.75 h 17.964 v 35 l 47.489,12.184 v -47.184 h 25.269 v -30.75 h -25.269 v -84.617 c 0,-12.473 4.57,-19.172 15.226,-19.172 3.942,0 6.086,0.609 10.043,1.832 v -29.223 c -3.957,-1.828 -12.484,-4.566 -23.437,-4.566" /><path
         id="path24"
         style="fill:#51769b;fill-opacity:1;fill-rule:nonzero;stroke:none"
         d="m 676.066,254.539 c -11.578,4.859 -23.75,4.563 -31.668,0.902 V 121.52 h -47.472 v 154.941 c 18.258,8.82 43.828,13.687 87.969,11.559 l -8.829,-33.481" /><path
         id="path26"
         style="fill:#51769b;fill-opacity:1;fill-rule:nonzero;stroke:none"
         d="M 697.988,121.52 V 285.578 H 745.48 V 121.52 Z m 23.739,189.019 c -13.989,0 -25.254,9.75 -25.254,22.223 0,12.168 11.265,22.218 25.254,22.218 14.003,0 25.269,-10.05 25.269,-22.218 0,-12.473 -11.266,-22.223 -25.269,-22.223" /><path
         id="path28"
         style="fill:#51769b;fill-opacity:1;fill-rule:nonzero;stroke:none"
         d="m 834.98,118.469 c -38.96,0 -67.578,30.453 -67.578,85.543 0,55.386 30.746,84.617 67.266,84.617 20.094,0 32.875,-5.789 40.184,-11.879 l -9.735,-26.172 c -4.269,3.352 -10.043,6.402 -19.48,6.402 -20.699,0 -30.449,-18.871 -30.449,-52.359 0,-33.191 11.265,-52.359 30.136,-52.359 8.824,0 14.914,2.429 19.793,6.699 l 10.047,-28.621 c -7.012,-6.692 -19.48,-11.871 -40.184,-11.871" /><path
         id="path30"
         style="fill:#51769b;fill-opacity:1;fill-rule:nonzero;stroke:none"
         d="M 966.184,121.52 V 330.941 H 1073.34 V 297.75 h -57.54 v -53.262 h 50.23 V 212.23 h -50.23 v -57.539 h 57.54 V 121.52 H 966.184" /><path
         id="path32"
         style="fill:#51769b;fill-opacity:1;fill-rule:nonzero;stroke:none"
         d="m 1186.91,121.52 v 114.761 c 0,11.559 -5.18,22.821 -24.37,22.821 -9.43,0 -14.6,-1.512 -20.09,-3.34 V 121.52 h -47.47 v 154.941 c 16.43,7.301 39.57,12.168 68.78,12.168 52.06,0 70.62,-22.219 70.62,-52.059 V 121.52 h -47.47" /><path
         id="path34"
         style="fill:#51769b;fill-opacity:1;fill-rule:nonzero;stroke:none"
         d="m 1327.56,260.621 c -19.48,0 -31.67,-16.742 -30.14,-50.519 l 57.23,8.527 c 0,29.211 -9.75,41.992 -27.09,41.992 z m -27.1,-73.672 c 3.35,-24.027 15.52,-35.91 39.57,-35.91 19.18,0 33.78,4.262 42.62,8.832 l 10.64,-29.531 c -12.78,-6.379 -31.04,-11.871 -58.74,-11.871 -50.22,0 -79.14,33.179 -79.14,85.543 0,51.429 26.79,84.617 73.96,84.617 47.49,0 71.54,-32.258 69.42,-87.668 l -98.33,-14.012" /><path
         id="path36"
         style="fill:#51769b;fill-opacity:1;fill-rule:nonzero;stroke:none"
         d="m 1498.95,254.539 c -11.58,4.859 -23.76,4.563 -31.68,0.902 V 121.52 h -47.47 v 154.941 c 18.26,8.82 43.83,13.687 87.97,11.559 l -8.82,-33.481" /><path
         id="path38"
         style="fill:#51769b;fill-opacity:1;fill-rule:nonzero;stroke:none"
         d="m 1610.35,258.488 c -3.64,1.844 -8.51,2.742 -14.91,2.742 -24.35,0 -34.39,-19.781 -34.39,-59.05 0,-37.129 9.73,-54.782 33.48,-54.782 6.39,0 11.87,1.524 15.82,3.942 z M 1584.79,52.4219 c -25.26,0 -48.09,4.8672 -61.18,12.1679 l 12.17,30.75 c 10.04,-5.4804 24.96,-9.7304 40.49,-9.7304 24.96,0 34.08,11.8594 34.08,30.7306 v 9.14 c -5.47,-3.05 -14.91,-5.179 -28.6,-5.179 -39.27,0 -67.58,30.129 -67.58,79.14 0,54.797 28.01,89.188 84.32,89.188 25.26,0 46.57,-5.18 58.13,-12.168 v -156.16 c 0,-46.5705 -29.82,-67.8791 -71.83,-67.8791" /><path
         id="path40"
         style="fill:#51769b;fill-opacity:1;fill-rule:nonzero;stroke:none"
         d="m 1746.75,56.0781 h -49.91 l 26.17,65.4419 -53.27,164.058 h 50.22 l 22.54,-94.957 c 3.34,-14.012 3.34,-25.883 3.34,-25.883 h 0.61 c 0,0 0.91,11.871 4.56,25.883 l 24.96,94.957 h 44.45 L 1746.75,56.0781" /><path
         id="path42"
         style="fill:#51769b;fill-opacity:1;fill-rule:nonzero;stroke:none"
         d="m 1951.94,118.469 c -25.89,0 -42.93,4.57 -54.8,12.48 l 11.26,34.403 c 6.7,-4.571 19.17,-9.743 33.79,-9.743 17.35,0 28.01,10.051 28.01,24.961 0,13.391 -7.92,21.61 -29.23,31.039 -32.57,14.621 -41.7,37.45 -41.7,57.84 0,35.313 25.56,64.531 66.36,64.531 22.53,0 38.96,-5.48 49,-12.179 l -10.34,-30.129 c -7.31,4.566 -18.57,9.129 -31.36,9.129 -16.44,0 -25.27,-9.129 -25.27,-24.051 0,-15.219 10.66,-22.82 28.31,-30.738 40.49,-18.262 46.27,-40.481 46.27,-61.793 0,-37.739 -28.92,-65.75 -70.3,-65.75" /><path
         id="path44"
         style="fill:#51769b;fill-opacity:1;fill-rule:nonzero;stroke:none"
         d="m 2110.54,259.102 c -21,0 -25.27,-25.563 -25.27,-54.793 0,-29.528 4.57,-53.559 25.27,-53.559 21,0 25.27,24.031 25.27,53.559 0,29.23 -4.27,54.793 -25.27,54.793 z m 0,-140.633 c -47.49,0 -72.45,36.222 -72.45,85.23 0,49 24.96,84.93 72.15,84.93 47.79,0 72.74,-35.93 72.74,-84.93 0,-49.008 -24.95,-85.23 -72.44,-85.23" /><path
         id="path46"
         style="fill:#51769b;fill-opacity:1;fill-rule:nonzero;stroke:none"
         d="m 2265.8,118.469 c -38.96,0 -67.58,30.453 -67.58,85.543 0,55.386 30.75,84.617 67.27,84.617 20.09,0 32.88,-5.789 40.18,-11.879 l -9.73,-26.172 c -4.27,3.352 -10.04,6.402 -19.48,6.402 -20.7,0 -30.45,-18.871 -30.45,-52.359 0,-33.191 11.27,-52.359 30.14,-52.359 8.82,0 14.91,2.429 19.79,6.699 l 10.05,-28.621 c -7.01,-6.692 -19.48,-11.871 -40.19,-11.871" /><path
         id="path48"
         style="fill:#51769b;fill-opacity:1;fill-rule:nonzero;stroke:none"
         d="m 2323.65,121.52 v 164.058 h 47.49 V 121.52 Z m 23.74,189.019 c -13.99,0 -25.25,9.75 -25.25,22.223 0,12.168 11.26,22.218 25.25,22.218 14,0 25.27,-10.05 25.27,-22.218 0,-12.473 -11.27,-22.223 -25.27,-22.223" /><path
         id="path50"
         style="fill:#51769b;fill-opacity:1;fill-rule:nonzero;stroke:none"
         d="m 2465.2,260.621 c -19.48,0 -31.67,-16.742 -30.14,-50.519 l 57.22,8.527 c 0,29.211 -9.74,41.992 -27.08,41.992 z m -27.1,-73.672 c 3.35,-24.027 15.52,-35.91 39.57,-35.91 19.18,0 33.78,4.262 42.62,8.832 l 10.64,-29.531 c -12.78,-6.379 -31.04,-11.871 -58.74,-11.871 -50.22,0 -79.14,33.179 -79.14,85.543 0,51.429 26.79,84.617 73.96,84.617 47.49,0 71.54,-32.258 69.42,-87.668 l -98.33,-14.012" /><path
         id="path52"
         style="fill:#51769b;fill-opacity:1;fill-rule:nonzero;stroke:none"
         d="m 2616.51,119.082 c -34.41,0 -49.32,22.219 -49.32,47.488 v 88.258 h -17.95 v 30.75 h 17.95 v 35 l 47.49,12.184 v -47.184 h 25.27 v -30.75 h -25.27 v -84.617 c 0,-12.473 4.57,-19.172 15.22,-19.172 3.95,0 6.09,0.609 10.05,1.832 v -29.223 c -3.96,-1.828 -12.49,-4.566 -23.44,-4.566" /><path
         id="path54"
         style="fill:#51769b;fill-opacity:1;fill-rule:nonzero;stroke:none"
         d="m 2722.44,56.0781 h -49.91 l 26.17,65.4419 -53.28,164.058 h 50.23 l 22.53,-94.957 c 3.35,-14.012 3.35,-25.883 3.35,-25.883 h 0.61 c 0,0 0.91,11.871 4.56,25.883 l 24.95,94.957 h 44.46 L 2722.44,56.0781" /><path
         id="path56"
         style="fill:#51769b;fill-opacity:1;fill-rule:nonzero;stroke:none"
         d="m 2948.03,259.102 c -21,0 -25.27,-25.563 -25.27,-54.793 0,-29.528 4.57,-53.559 25.27,-53.559 21,0 25.27,24.031 25.27,53.559 0,29.23 -4.27,54.793 -25.27,54.793 z m 0,-140.633 c -47.49,0 -72.45,36.222 -72.45,85.23 0,49 24.96,84.93 72.15,84.93 47.79,0 72.75,-35.93 72.75,-84.93 0,-49.008 -24.96,-85.23 -72.45,-85.23" /><path
         id="path58"
         style="fill:#51769b;fill-opacity:1;fill-rule:nonzero;stroke:none"
         d="M 3098.73,254.828 V 121.52 h -47.49 v 133.308 h -17.97 v 30.75 h 17.97 v 16.742 c 0,41.09 28.3,62.7 72.76,57.84 v -30.14 c -15.84,0.609 -25.27,-4.872 -25.27,-23.739 V 285.578 H 3124 v -30.75 h -25.27" /><path
         id="path60"
         style="fill:#51769b;fill-opacity:1;fill-rule:nonzero;stroke:none"
         d="m 3290.81,262.75 c -3.95,14.621 -4.88,25.27 -4.88,25.27 h -0.61 c 0,0 -1.2,-10.36 -5.47,-25.27 l -19.49,-68.172 h 49.01 z m 38.04,-141.23 -12.78,44.75 h -63.01 l -13.38,-44.75 h -44.14 l 68.17,209.421 h 48.1 l 67.88,-209.421 h -50.84" /><path
         id="path62"
         style="fill:#51769b;fill-opacity:1;fill-rule:nonzero;stroke:none"
         d="m 3458.55,118.469 c -46.27,0 -68.78,17.351 -68.78,56.922 v 110.187 h 47.47 V 172.039 c 0,-11.859 6.4,-21.609 22.53,-21.609 8.53,0 14.62,1.218 19.78,3.961 v 131.187 h 47.49 V 131.25 c -15.22,-7.602 -37.74,-12.781 -68.49,-12.781" /><path
         id="path64"
         style="fill:#51769b;fill-opacity:1;fill-rule:nonzero;stroke:none"
         d="m 3592.2,118.781 c -20.09,0 -38.06,5.18 -48.1,11.879 l 12.17,30.121 c 6.09,-4.871 17.35,-9.441 29.23,-9.441 12.17,0 20.39,7.621 20.39,17.961 0,10.961 -5.77,17.058 -21,23.148 -30.14,11.86 -36.83,28.602 -36.83,45.66 0,27.993 21.92,50.52 54.79,50.52 20.39,0 34.4,-3.957 47.18,-11.879 l -11.56,-27.078 c -4.89,3.957 -14.32,8.508 -24.96,8.508 -12.49,0 -18.89,-7.602 -18.89,-17.039 0,-10.95 8.23,-17.039 21.02,-22.512 31.65,-13.399 38.96,-28.918 38.96,-48.098 0,-28.621 -23.44,-51.75 -62.4,-51.75" /><path
         id="path66"
         style="fill:#51769b;fill-opacity:1;fill-rule:nonzero;stroke:none"
         d="m 3733.76,119.082 c -34.41,0 -49.32,22.219 -49.32,47.488 v 88.258 h -17.95 v 30.75 h 17.95 v 35 l 47.49,12.184 v -47.184 h 25.27 v -30.75 h -25.27 v -84.617 c 0,-12.473 4.57,-19.172 15.22,-19.172 3.95,0 6.09,0.609 10.05,1.832 v -29.223 c -3.96,-1.828 -12.49,-4.566 -23.44,-4.566" /><path
         id="path68"
         style="fill:#51769b;fill-opacity:1;fill-rule:nonzero;stroke:none"
         d="m 3855.53,254.539 c -11.58,4.859 -23.76,4.563 -31.67,0.902 V 121.52 h -47.48 v 154.941 c 18.26,8.82 43.83,13.687 87.97,11.559 l -8.82,-33.481" /><path
         id="path70"
         style="fill:#51769b;fill-opacity:1;fill-rule:nonzero;stroke:none"
         d="m 3960.55,207.66 c -28.62,-2.738 -47.18,-9.441 -47.18,-35.621 0,-19.168 10.96,-27.398 29.83,-27.398 6.99,0 13.08,1.23 17.35,3.347 z m -19.79,-89.191 c -47.48,0 -71.84,17.66 -71.84,51.742 0,42.309 42.31,54.801 91.63,59.367 v 7.602 c 0,17.058 -11.56,21.922 -28.92,21.922 -15.83,0 -31.96,-5.172 -42.62,-10.043 l -10.34,27.082 c 11.56,4.871 32.87,12.488 61.79,12.488 37.13,0 64.53,-15.52 64.53,-59.957 V 130.66 c -13.69,-7.308 -35.93,-12.191 -64.23,-12.191" /><path
         id="path72"
         style="fill:#51769b;fill-opacity:1;fill-rule:nonzero;stroke:none"
         d="m 4032.72,121.52 v 238.929 h 47.49 V 121.52 h -47.49" /><path
         id="path74"
         style="fill:#51769b;fill-opacity:1;fill-rule:nonzero;stroke:none"
         d="m 4108.83,121.52 v 164.058 h 47.49 V 121.52 Z m 23.73,189.019 c -13.99,0 -25.25,9.75 -25.25,22.223 0,12.168 11.26,22.218 25.25,22.218 14.01,0 25.27,-10.05 25.27,-22.218 0,-12.473 -11.26,-22.223 -25.27,-22.223" /><path
         id="path76"
         style="fill:#51769b;fill-opacity:1;fill-rule:nonzero;stroke:none"
         d="m 4268.04,207.66 c -28.62,-2.738 -47.18,-9.441 -47.18,-35.621 0,-19.168 10.95,-27.398 29.82,-27.398 7,0 13.08,1.23 17.36,3.347 z m -19.8,-89.191 c -47.47,0 -71.83,17.66 -71.83,51.742 0,42.309 42.31,54.801 91.63,59.367 v 7.602 c 0,17.058 -11.57,21.922 -28.92,21.922 -15.83,0 -31.97,-5.172 -42.62,-10.043 l -10.35,27.082 c 11.57,4.871 32.88,12.488 61.8,12.488 37.13,0 64.53,-15.52 64.53,-59.957 V 130.66 c -13.7,-7.308 -35.93,-12.191 -64.24,-12.191" /><path
         id="path78"
         style="fill:#18192e;fill-opacity:1;fill-rule:nonzero;stroke:none"
         d="M 0,1231.42 V 674.23 C 0,550.25 87.7617,468.07 218.699,468.07 H 535.121 L 682.566,671.449 H 321.785 c -39.012,0 -59.902,20.879 -59.902,59.883 V 877.605 H 631.027 V 1057.3 H 261.883 v 117.01 c 0,39 20.89,59.9 59.902,59.9 h 360.781 v 202.49 l -463.867,0.89 C 89.1523,1437.59 0,1355.41 0,1231.42" /><path
         id="path80"
         style="fill:#18192e;fill-opacity:1;fill-rule:nonzero;stroke:none"
         d="M 813.727,1231.42 V 674.23 c 0,-123.98 87.757,-206.16 218.693,-206.16 h 316.43 l 147.44,203.379 h -360.78 c -39.01,0 -59.9,20.879 -59.9,59.883 v 146.273 h 369.14 V 1057.3 h -369.14 v 117.01 c 0,39 20.89,59.9 59.9,59.9 h 360.78 v 202.49 l -463.87,0.89 c -129.541,0 -218.693,-82.18 -218.693,-206.17" /><path
         id="path82"
         style="fill:#18192e;fill-opacity:1;fill-rule:nonzero;stroke:none"
         d="m 2659.43,894.336 62.69,246.554 c 6.4,29.45 12.69,62.2 18.01,92.24 h 40.08 c 3.35,-30.01 10.73,-62.83 17.11,-92.24 l 62.69,-246.554 z m 310.63,475.004 c -11.14,41.79 -47.36,68.25 -89.15,68.25 h -92.82 -149.56 -393.26 -332.68 c -271.63,0 -374.71,-52.81 -374.71,-266.75 0,-138.13 55.72,-218.02 207.55,-277.594 l 192.24,-74.476 c 57.11,-20.317 76.61,-33.856 76.61,-78.532 0,-18.64 -3.66,-31.625 -13.7,-40.523 -5.46,-4.832 -25.01,-14.535 -43.2,-18.574 -29.14,-6.461 -98.4,-14.512 -261.52,-12.68 L 1547.97,468.07 h 352.09 c 282.77,0 376.1,66.34 376.1,277.578 0,136.762 -52.94,219.36 -210.34,280.292 l -176.91,66.36 c -68.26,23.02 -91.93,39.26 -91.93,82.59 0,51.47 27.85,58.24 112.82,58.24 h 600.81 l -223.1,-756.7 h 267.45 l 57.11,228.457 h 295.31 L 2964.5,476.43 h 267.46 l -261.9,892.91" /><g
         id="g84"><g
           clip-path="url(#clipPath90)"
           id="g86"><path
             id="path98"
             style="fill:url(#linearGradient96);fill-opacity:1;fill-rule:nonzero;stroke:none"
             d="m 4743.79,1041.82 c 0,0 -12.13,-78.742 66.91,-77.828 l 332.04,3.824 c -0.35,23.008 -5.44,49.084 -18.72,77.614 l -267.38,574.55 c -20.21,43.41 -38.17,60.66 -53.45,63.64 l -59.4,-641.8" /></g></g><g
         id="g100"><g
           clip-path="url(#clipPath106)"
           id="g102"><path
             id="path114"
             style="fill:url(#linearGradient112);fill-opacity:1;fill-rule:nonzero;stroke:none"
             d="m 4599.8,94.9102 48.76,526.8708 c 0,0 12.14,78.742 -66.91,77.828 -4.06,0.586 -8.92,1.344 -14.44,2.243 l -273.28,-3.149 c -74.33,-0.855 -34.51,62.063 -27.05,72.985 2.25,4.523 4.51,8.652 6.67,12.183 1.06,1.746 2.46,4.012 3.99,6.453 l 327.54,585.836 6.04,-3.57 108.85,197.76 c 0,0 28.89,56.21 33.32,66.58 8.86,20.68 26.11,50.81 49.9,46.18 L 4743.8,1041.3 c 0,0 -12.14,-78.737 66.9,-77.823 l 332.04,3.824 c 0.12,-8.039 -12.8,-69.399 -17.35,-76.028 -2.22,-4.453 -4.45,-8.574 -6.58,-12.062 -1.06,-1.746 -2.47,-4.012 -4,-6.457 L 4787.27,286.93 c 0,0 -142.39,-251.1097 -148.21,-260.7698 -23.62,-39.25 -34.17,-25.500044 -42.17,-15.0313 -7.1,9.3008 -4.29,29.043 -4.29,29.043 l 7.2,54.7383" /></g></g><g
         id="g116"><g
           clip-path="url(#clipPath122)"
           id="g118"><path
             id="path130"
             style="fill:url(#linearGradient128);fill-opacity:1;fill-rule:nonzero;stroke:none"
             d="m 4648.56,621.781 c 0,0 12.14,78.742 -66.91,77.828 -4.06,0.586 -8.92,1.344 -14.44,2.243 l -273.28,-3.149 c -30.78,-0.355 -41.84,10.27 -43.87,23.563 -0.02,0.125 -0.05,0.246 -0.07,0.371 -0.25,1.781 -0.34,3.593 -0.29,5.449 0,0.617 -0.02,1.223 0.02,1.848 0.08,1.089 0.24,2.179 0.41,3.281 2.68,19.75 17.98,40.762 17.98,40.762 l 1.11,1.984 c 1.45,2.742 2.93,5.617 4.33,7.91 0.26,0.438 0.69,1.121 0.99,1.617 l 330.54,591.192 -438.62,259.01 c -96.17,56.79 -202,-4.68 -202,-4.68 l -662.71,-419.33 c -95.82,-60.62 -65.11,-115.66 -65.11,-115.66 L 3451.6,481.039 c 0,0 23.05,-77.059 84.83,-38.527 l 355.89,221.968 736.64,-254.429 19.6,211.73" /></g></g></g></g></svg>